# xmcd
# 
# Track frame offsets:
#     150
#     15503
#     29460
#     36275
#     55293
#     81290
#     97600
#     115988
#     133225
#     147035
#     159080
#     171908
#     185470
#     220995
#     239725
#     256395
# 
# Disc length: 3540
# 
# Revision: 10
# Processed by: cddbd v1.5.2PL0 Copyright (c) Steve Scherf et al.
# Submitted via: fre:ac v1.0.27
# 
DISCID=da0dd210
DTITLE=THE_BLUES_BROTHERS - Everybody_Needs
DYEAR=1988
DGENRE=Blues
TTITLE0=Everybody Needs Somebody To Love
TTITLE1=Gimme Some Lovin'
TTITLE2=I Can't Turn You Loose
TTITLE3=She Caught The Katy
TTITLE4=Green Onion
TTITLE5=Who's Making Love
TTITLE6="B" Movie Box Car Blues
TTITLE7=Peter Gunn Theme
TTITLE8=Soul Man
TTITLE9=Theme From Rawhide
TTITLE10=Shake Your Tailfeather
TTITLE11=Do You Love Me Mother Popcorn
TTITLE12=Sweet Home Chicago
TTITLE13=Going Back To Miami
TTITLE14=Flip Flop and Fly
TTITLE15=Soul Finger Funky Broadway
EXTD=YEAR: 1988
EXTT0=
EXTT1=
EXTT2=
EXTT3=
EXTT4=
EXTT5=
EXTT6=
EXTT7=
EXTT8=
EXTT9=
EXTT10=
EXTT11=
EXTT12=
EXTT13=
EXTT14=
EXTT15=
PLAYORDER=
